<?xml version="1.0" encoding="iso-8859-1"?>
<!-- Generator: Adobe Illustrator 19.0.0, SVG Export Plug-In . SVG Version: 6.00 Build 0)  -->
<svg version="1.1" id="Layer_1" xmlns="http://www.w3.org/2000/svg" xmlns:xlink="http://www.w3.org/1999/xlink" x="0px" y="0px"
	 viewBox="0 0 459.999 459.999" style="enable-background:new 0 0 459.999 459.999;" xml:space="preserve">
<g>
	<g>
		<g>
			<path d="M212.991,249.518c9.767,9.66,25.508,9.624,35.25-0.1l74.888-74.887c9.763-9.763,9.763-25.592,0-35.355
				c-9.762-9.763-25.591-9.763-35.355,0l-32.21,32.209V47.596c0-13.808-11.193-25-25-25s-25,11.192-25,25v123.79l-32.21-32.209
				c-9.764-9.764-25.593-9.764-35.355,0c-9.763,9.764-9.763,25.593,0,35.355C139.121,175.656,211.868,248.403,212.991,249.518z"/>
			<path d="M431.654,312.404H28.346C12.691,312.404,0,325.094,0,340.75v68.307c0,15.655,12.691,28.346,28.346,28.346h403.307
				c15.655,0,28.346-12.691,28.346-28.346V340.75C460,325.094,447.309,312.404,431.654,312.404z"/>
		</g>
	</g>
</g>
<g>
</g>
<g>
</g>
<g>
</g>
<g>
</g>
<g>
</g>
<g>
</g>
<g>
</g>
<g>
</g>
<g>
</g>
<g>
</g>
<g>
</g>
<g>
</g>
<g>
</g>
<g>
</g>
<g>
</g>
</svg>
