<?xml version="1.0" encoding="iso-8859-1"?>
<!-- Generator: Adobe Illustrator 16.0.0, SVG Export Plug-In . SVG Version: 6.00 Build 0)  -->
<!DOCTYPE svg PUBLIC "-//W3C//DTD SVG 1.1//EN" "http://www.w3.org/Graphics/SVG/1.1/DTD/svg11.dtd">
<svg version="1.1" id="Capa_1" xmlns="http://www.w3.org/2000/svg" xmlns:xlink="http://www.w3.org/1999/xlink" x="0px" y="0px"
	 width="355.175px" height="355.175px" viewBox="0 0 355.175 355.175" style="enable-background:new 0 0 355.175 355.175;"
	 xml:space="preserve">
<g>
	<g>
		<path d="M350.78,125.159L230.136,4.523c-5.858-5.857-15.354-5.857-21.212,0L52.615,160.827c-0.001,0.001,0,0-0.001,0.001
			l141.855,141.856l156.312-156.312c2.812-2.813,4.394-6.629,4.394-10.607C355.174,131.788,353.593,127.972,350.78,125.159z"/>
		<path d="M0.533,325.951c-1.443,5.379,0.094,11.119,4.033,15.057l9.478,9.476c3.938,3.936,9.676,5.472,15.052,4.028l136.271-36.552
			L37.084,189.676L0.533,325.951z"/>
	</g>
</g>
<g>
</g>
<g>
</g>
<g>
</g>
<g>
</g>
<g>
</g>
<g>
</g>
<g>
</g>
<g>
</g>
<g>
</g>
<g>
</g>
<g>
</g>
<g>
</g>
<g>
</g>
<g>
</g>
<g>
</g>
</svg>
